<svg width="89" height="24" viewBox="0 0 89 24" fill="none" xmlns="http://www.w3.org/2000/svg">
<path d="M29.9424 17.2801V5.71039H31.9335L36.7828 13.2659L37.5156 14.6264L37.466 5.71039H39.3725V17.2801H37.3813L32.5495 9.75965L31.8021 8.34665L31.8518 17.2801H29.9453H29.9424ZM41.2088 7.08835V5.03015H43.0306V7.08835H41.2088ZM41.2088 17.2801V8.20943H43.0306V17.2801H41.2088ZM50.4374 13.5199V8.21235H52.2417V17.2831H50.4374V16.0569C49.8419 17.0261 48.8901 17.502 47.731 17.502C45.8771 17.502 44.7181 16.4131 44.7181 14.2702V8.21235H46.5399V13.8965C46.5399 15.2073 47.0858 15.9897 48.2916 15.9897C49.62 15.9897 50.4345 14.7811 50.4345 13.5228L50.4374 13.5199ZM53.9467 17.2801V8.20943H55.7685V9.55236C56.3641 8.46341 57.3012 7.97003 58.3552 7.97003C58.7114 7.97003 59.053 8.0547 59.2223 8.20943V9.80927C58.9508 9.72461 58.6267 9.68959 58.253 9.68959C56.5188 9.68959 55.7685 10.7435 55.7685 12.3258V17.2772H53.9467V17.2801ZM61.5375 11.1727H59.7157C60.0047 9.16409 61.3827 7.97295 63.6454 7.97295C66.1124 7.97295 67.3386 9.41807 67.3386 11.5288V15.0672C67.3386 16.1561 67.4408 16.7867 67.6451 17.2801H65.7387C65.6015 16.9386 65.5518 16.4627 65.5343 15.9518C64.7694 17.0232 63.5957 17.4991 62.5068 17.4991C60.6704 17.4991 59.4091 16.632 59.4091 14.895C59.4091 13.6542 60.0894 12.7346 61.4499 12.2733C62.6586 11.8646 63.8819 11.7624 65.5168 11.7449V11.5405C65.5168 10.2122 64.9037 9.49981 63.5082 9.49981C62.3345 9.49981 61.7039 10.145 61.5346 11.1668L61.5375 11.1727ZM61.2484 14.8307C61.2484 15.5956 61.8791 16.0715 62.8483 16.0715C64.3636 16.0715 65.5197 14.8628 65.5197 13.4002V12.9915C62.0309 13.0265 61.2484 13.7914 61.2484 14.8278V14.8307ZM69.1136 17.2801V5.03015H70.9354V17.2801H69.1136ZM83.2587 17.2801L82.2719 14.676H76.9964L76.0096 17.2801H74.1031L78.5612 5.71039H80.7917L85.2499 17.2801H83.2587ZM79.294 8.6707L77.5744 13.1812H81.691L79.9714 8.6707L79.6298 7.54671L79.2882 8.6707H79.294ZM86.2775 17.2801V5.71039H88.184V17.2801H86.2775Z" fill="#18181B"/>
<path fill-rule="evenodd" clip-rule="evenodd" d="M21.4001 8.91308L20.9184 8.80215H20.9126C20.86 8.79048 20.8133 8.77878 20.7753 8.76711C20.7286 8.75251 20.6848 8.73792 20.644 8.71748C20.5301 8.66493 20.4338 8.58026 20.3666 8.47516C20.2148 8.24744 20.2119 7.95551 20.3549 7.72196C20.3666 7.70444 20.3783 7.68693 20.39 7.66941C20.3958 7.66357 20.3987 7.65773 20.4046 7.64897C20.4659 7.57307 20.5505 7.50591 20.641 7.46212C20.6732 7.44753 20.7169 7.42709 20.7783 7.40958C20.8133 7.40082 20.8454 7.39205 20.8746 7.38621L20.9096 7.37747C20.9096 7.37747 20.9184 7.37747 20.9213 7.37747L21.403 7.26945C21.5023 7.24609 21.5957 7.21105 21.6862 7.16433C21.5286 6.28558 21.0498 5.49442 20.3403 4.94557C19.6367 5.20248 19.0937 5.8068 18.9302 6.54834L18.755 7.32782V7.34826C18.7346 7.42417 18.7171 7.48839 18.6996 7.54678C18.682 7.60517 18.6645 7.65189 18.6499 7.68693C18.6441 7.6986 18.6382 7.7132 18.6324 7.72488C18.5653 7.85626 18.4718 7.95843 18.358 8.03434C18.2237 8.12484 18.0689 8.17155 17.9025 8.17155C17.7361 8.17155 17.5814 8.12484 17.4471 8.03434C17.3332 7.96135 17.2398 7.85626 17.1726 7.72488C17.1726 7.72488 17.1726 7.72195 17.1697 7.71904C17.1464 7.6694 17.1259 7.61393 17.1055 7.55263C17.088 7.49132 17.0705 7.42125 17.05 7.33367L16.8749 6.54834C16.688 5.71338 16.0224 5.05067 15.1844 4.86091L14.3991 4.68281H14.3903C14.3173 4.66529 14.2473 4.64778 14.186 4.63026C14.1247 4.61275 14.075 4.59232 14.0254 4.56897C13.8911 4.50474 13.7802 4.40839 13.7013 4.28577C13.5232 4.01718 13.5203 3.67269 13.6867 3.39827C13.6984 3.37783 13.713 3.35739 13.7276 3.33987C13.7334 3.33112 13.7393 3.32235 13.7451 3.31651C13.8181 3.22601 13.9115 3.15303 14.0225 3.10048C14.0633 3.08004 14.1188 3.05378 14.1918 3.03626C14.2385 3.02166 14.2852 3.00997 14.3319 3.00121C14.3495 2.99829 14.3728 2.99245 14.3933 2.98662C14.3933 2.98662 14.3991 2.98662 14.4049 2.98662L15.1874 2.81146C15.4968 2.74139 15.783 2.60709 16.0282 2.42317L12.6824 0.493419C11.5642 -0.151778 10.1862 -0.151778 9.06512 0.493419L1.80719 4.68281C0.689008 5.32801 0 6.52207 0 7.81538V16.1942C0 17.4875 0.689008 18.6815 1.80719 19.3267L9.06512 23.5161C10.1833 24.1613 11.5642 24.1613 12.6824 23.5161L19.9404 19.3267C21.0585 18.6815 21.7475 17.4875 21.7475 16.1942V9.06489C21.6424 9.00359 21.5286 8.95688 21.406 8.92769L21.4001 8.91308ZM15.383 17.2919L13.316 18.2641H13.2079V8.74084C13.2079 8.37883 12.9773 8.10731 12.5218 7.92923C12.0722 7.74822 11.5204 7.65772 10.8665 7.65772C10.2125 7.65772 9.66071 7.74822 9.20526 7.92923C8.75273 8.10731 8.53085 8.37883 8.53085 8.74084V17.289L6.46383 18.2611H6.35581V8.36132C6.35581 7.39498 7.03314 6.65052 8.39071 6.13086C9.12352 5.85059 9.94974 5.71046 10.8723 5.71046C11.7949 5.71046 12.6182 5.85059 13.3539 6.13086C14.7086 6.65052 15.3888 7.39498 15.3888 8.36132V17.289L15.383 17.2919Z" fill="#714DFF"/>
<path fill-rule="evenodd" clip-rule="evenodd" d="M15.3826 8.36423V17.2919L13.3156 18.264H13.2076V8.74083C13.2076 8.37882 12.9769 8.1073 12.5215 7.92922C12.0719 7.74821 11.5201 7.65771 10.8661 7.65771C10.2122 7.65771 9.66037 7.74821 9.20492 7.92922C8.7524 8.1073 8.53051 8.37882 8.53051 8.74083V17.2889L6.46349 18.2611H6.35547V8.36131C6.35547 7.39497 7.0328 6.65051 8.39038 6.13085C9.12318 5.85058 9.9494 5.71045 10.872 5.71045C11.7945 5.71045 12.6178 5.85058 13.3536 6.13085C14.7082 6.65051 15.3885 7.39497 15.3885 8.36131L15.3826 8.36423Z" fill="white"/>
<path d="M21.6776 4.00256C21.6484 4.04635 21.6105 4.08138 21.555 4.10766C21.5316 4.11933 21.5054 4.13101 21.4703 4.13977C21.4207 4.15436 21.3565 4.16897 21.2864 4.18356L20.504 4.36165C20.2675 4.4142 20.0427 4.49885 19.8325 4.60979C19.1318 4.97764 18.6092 5.64035 18.4311 6.43152L18.2588 7.2081C18.2413 7.28693 18.2267 7.35115 18.2121 7.40078C18.2034 7.43581 18.1917 7.4621 18.18 7.48837C18.1537 7.54092 18.1187 7.58179 18.0749 7.60806C18.0224 7.64602 17.9611 7.66061 17.8997 7.66061C17.8384 7.66061 17.7742 7.64602 17.7217 7.60806C17.6808 7.58179 17.6457 7.54092 17.6166 7.48837C17.6049 7.46502 17.5961 7.43581 17.5844 7.40078C17.5698 7.35406 17.5552 7.29276 17.5406 7.21977L17.3655 6.43444C17.1348 5.4068 16.3203 4.5952 15.2926 4.36457L14.5102 4.18649C14.4401 4.17189 14.3759 4.15728 14.3262 4.14269C14.2912 4.13393 14.2649 4.12226 14.2416 4.11058C14.189 4.08722 14.1482 4.05218 14.119 4.00546C14.0489 3.90036 14.0489 3.76024 14.119 3.65222C14.119 3.65222 14.119 3.65222 14.119 3.6493L14.1277 3.63763C14.1277 3.63763 14.1277 3.63763 14.1277 3.63471C14.154 3.60259 14.1919 3.57339 14.2357 3.55295C14.2591 3.54128 14.2854 3.5296 14.3204 3.52085C14.37 3.50333 14.4343 3.49166 14.5073 3.47414L15.2868 3.29896C15.7393 3.19678 16.1509 2.98367 16.4867 2.68589C16.9188 2.30928 17.2283 1.8013 17.3596 1.22617L17.5348 0.437916C17.5494 0.36785 17.564 0.303623 17.5786 0.256912C17.5874 0.224798 17.599 0.195608 17.6107 0.169333C17.637 0.119702 17.672 0.0788199 17.7158 0.0496255L17.7333 0.0408765C17.783 0.0146015 17.8355 0 17.891 0C17.9552 0 18.0165 0.0175145 18.0691 0.0525478C18.1099 0.0817422 18.145 0.122624 18.1742 0.172255C18.1829 0.19561 18.1946 0.224801 18.2063 0.259835C18.2209 0.309465 18.2355 0.373682 18.253 0.449588L18.4282 1.22909C18.6588 2.25673 19.4734 3.06833 20.501 3.29896L21.2747 3.47414C21.3535 3.49166 21.4178 3.50333 21.4674 3.52085C21.5024 3.5296 21.5287 3.54128 21.5521 3.55295C21.5959 3.57339 21.6309 3.60259 21.6601 3.63471C21.6601 3.63471 21.6601 3.63471 21.6601 3.63763L21.6688 3.6493C21.6688 3.6493 21.6689 3.65513 21.6718 3.65805L21.6805 3.66974C21.7418 3.78068 21.736 3.9062 21.6718 4.00546L21.6776 4.00256Z" fill="#714DFF"/>
<path d="M25.458 8.19775C25.4405 8.22695 25.4171 8.24737 25.3821 8.26197C25.3675 8.26781 25.35 8.27657 25.3295 8.28241C25.3003 8.29117 25.2595 8.29993 25.2157 8.30869L24.7339 8.41963C24.0975 8.56268 23.5953 9.06481 23.4523 9.69833L23.3443 10.1771C23.3326 10.2268 23.3238 10.2647 23.3151 10.2968C23.3092 10.3173 23.3005 10.3348 23.2946 10.3494C23.2771 10.3815 23.2567 10.4078 23.2304 10.4224C23.1983 10.4457 23.1603 10.4545 23.1224 10.4545C23.0844 10.4545 23.0465 10.4457 23.0114 10.4224C22.9852 10.4078 22.9647 10.3815 22.9472 10.3494C22.9384 10.3348 22.9326 10.3173 22.9268 10.2968C22.918 10.2676 22.9092 10.2297 22.8976 10.183L22.7895 9.69833C22.664 9.14072 22.264 8.68821 21.7385 8.48677C21.6655 8.45758 21.5867 8.43423 21.5108 8.41671L21.0261 8.30577C20.9824 8.29701 20.9444 8.28824 20.9123 8.27949C20.8919 8.27365 20.8743 8.26781 20.8597 8.25905C20.8276 8.24445 20.8043 8.22402 20.7868 8.19483C20.743 8.1306 20.743 8.04302 20.7868 7.97587L20.7926 7.9671C20.8072 7.94667 20.8305 7.92916 20.8568 7.91748C20.8714 7.90872 20.8889 7.90288 20.9094 7.89704C20.9386 7.88828 20.9794 7.87953 21.0232 7.86785L21.505 7.75984C21.5838 7.74232 21.6597 7.71895 21.7327 7.69268C22.2582 7.49123 22.6611 7.03581 22.7866 6.48112L22.8946 5.99648C22.9034 5.95269 22.9151 5.91475 22.9238 5.88264C22.9297 5.8622 22.9355 5.84467 22.9443 5.83007C22.9589 5.79796 22.9822 5.7746 23.0085 5.75709L23.0173 5.75126C23.0465 5.73374 23.0815 5.72498 23.1136 5.72498C23.1516 5.72498 23.1895 5.73665 23.2246 5.75709C23.2508 5.7746 23.2713 5.79796 23.2888 5.83007C23.2946 5.84467 23.3005 5.8622 23.3092 5.88264C23.318 5.91475 23.3267 5.95269 23.3355 5.9994L23.4435 6.48112C23.5866 7.11464 24.0887 7.61678 24.7252 7.75984L25.2011 7.86785C25.2507 7.87953 25.2916 7.88536 25.3208 7.89704C25.3412 7.90288 25.3587 7.90872 25.3733 7.91748C25.3996 7.92916 25.42 7.94667 25.4405 7.9671L25.4463 7.97587C25.4463 7.97587 25.4463 7.97587 25.4463 7.97879V7.98462C25.4872 8.05469 25.4843 8.13352 25.4463 8.19191L25.458 8.19775Z" fill="#714DFF"/>
</svg>
